<svg xmlns="http://www.w3.org/2000/svg" id="Layer_1" viewBox="0 0 48 48"><path fill="#ef4c45" fill-rule="evenodd" d="M48 24c0 13.283-10.762 24.045-24 24.045C10.717 48.045 0 37.283 0 24 0 10.762 10.717 0 24 0c13.238 0 24 10.762 24 24z" clip-rule="evenodd"/><path fill="#fff" d="M24.01 17.498a3.372 3.372 0 0 1-3.367-3.368v-1.593h1v1.593a2.37 2.37 0 0 0 2.367 2.368 2.37 2.37 0 0 0 2.368-2.368v-1.593h1v1.593a3.371 3.371 0 0 1-3.368 3.368z"/><path fill="#fff" d="M21.896 16.573h1v1.297h-1zM25.19 16.573h1v1.297h-1zM26.879 13.412a.502.502 0 0 1-.39-.187l-.742-.922h-3.474l-.739.921a.5.5 0 1 1-.873-.18l-.492-1.796a1.574 1.574 0 0 1 .308-1.34c.201-.249.468-.426.766-.515a1.781 1.781 0 0 1 2.038-1.368l3.106.519c.483.08.905.345 1.188.746.283.401.39.889.303 1.371l-.509 2.356a.5.5 0 0 1-.49.395zM22.986 9a.79.79 0 0 0-.792.792c0 .276-.224.534-.5.534a.569.569 0 0 0-.554.685l.227.824.276-.345a.5.5 0 0 1 .39-.188h3.953a.5.5 0 0 1 .39.187l.235.293.285-1.316a.81.81 0 0 0-.139-.602.81.81 0 0 0-.534-.335l-3.107-.519a.936.936 0 0 0-.13-.01zM18.008 24.988a.5.5 0 0 1-.5-.5V21.78c0-.835.445-1.622 1.162-2.053l2.237-1.342a.5.5 0 0 1 .515.858l-2.236 1.342a1.403 1.403 0 0 0-.677 1.195v2.708a.502.502 0 0 1-.501.5zM30.008 24.988a.5.5 0 0 1-.5-.5V21.78c0-.486-.259-.944-.677-1.195l-2.236-1.342a.5.5 0 0 1 .515-.858l2.236 1.342a2.408 2.408 0 0 1 1.162 2.053v2.708a.5.5 0 0 1-.5.5z"/><path fill="#fff" d="M20.508 24.988a.5.5 0 0 1-.5-.5v-1.05c0-.349-.129-.682-.364-.939l-.395-.433a.499.499 0 1 1 .738-.674l.395.433c.404.441.626 1.015.626 1.613v1.05a.5.5 0 0 1-.5.5zM27.504 24.988a.5.5 0 0 1-.5-.5v-1.05c0-.6.222-1.172.626-1.614l.394-.432a.5.5 0 1 1 .74.674l-.395.433a1.39 1.39 0 0 0-.365.939v1.05a.5.5 0 0 1-.5.5zM22.434 20.892l-.028-.001a.498.498 0 0 1-.363-.187l-1.262-1.578a.5.5 0 0 1 .019-.647l.852-.946a.497.497 0 0 1 .586-.116l1.988.946a.5.5 0 0 1 .139.804l-1.578 1.578a.498.498 0 0 1-.353.147zm-.606-2.059l.648.81.682-.682-1.012-.481-.318.353z"/><path fill="#fff" d="M25.59 20.892a.505.505 0 0 1-.354-.146l-1.578-1.578a.498.498 0 0 1 .139-.804l1.988-.946a.497.497 0 0 1 .586.116l.852.946a.5.5 0 0 1 .019.647l-1.262 1.578a.502.502 0 0 1-.363.187h-.027zm-.724-1.931l.682.682.648-.81-.318-.354-1.012.482z"/><path fill="#fff" d="M24.004 24.988a.5.5 0 0 1-.5-.5v-5.694a.5.5 0 0 1 1 0v5.694a.5.5 0 0 1-.5.5zM15 40c-1.654 0-3-1.346-3-3s1.346-3 3-3 3 1.346 3 3-1.346 3-3 3zm0-5c-1.103 0-2 .897-2 2s.897 2 2 2 2-.897 2-2-.897-2-2-2zM33 40c-1.654 0-3-1.346-3-3s1.346-3 3-3 3 1.346 3 3-1.346 3-3 3zm0-5c-1.103 0-2 .897-2 2s.897 2 2 2 2-.897 2-2-.897-2-2-2zM33.008 33a.5.5 0 0 1-.5-.5v-1c0-.827-.673-1.5-1.5-1.5h-4a.5.5 0 0 1 0-1h4c1.378 0 2.5 1.121 2.5 2.5v1a.5.5 0 0 1-.5.5zM15.008 33a.5.5 0 0 1-.5-.5v-1c0-1.379 1.122-2.5 2.5-2.5h4a.5.5 0 0 1 0 1h-4c-.827 0-1.5.673-1.5 1.5v1a.5.5 0 0 1-.5.5z"/><path fill="#fff" d="M30.008 30h-4a2.503 2.503 0 0 1-2.5-2.5v-1a.5.5 0 0 1 1 0v1c0 .827.673 1.5 1.5 1.5h4a.5.5 0 0 1 0 1z"/><path fill="#fff" d="M22.008 30h-4a.5.5 0 0 1 0-1h4c.827 0 1.5-.673 1.5-1.5v-1a.5.5 0 0 1 1 0v1c0 1.379-1.122 2.5-2.5 2.5z"/></svg>